<?xml version="1.0" encoding="UTF-8" standalone="no"?>
<svg
   version="1.1"
   id="Layer_1"
   x="0px"
   y="0px"
   width="100%"
   viewBox="0 0 576 576"
   enable-background="new 0 0 576 576"
   xml:space="preserve"
   sodipodi:docname="file (cópia).svg"
   inkscape:version="1.2.2 (b0a8486541, 2022-12-01)"
   inkscape:export-filename="../Área de trabalho/chirp_icon.png"
   inkscape:export-xdpi="170.66667"
   inkscape:export-ydpi="170.66667"
   xmlns:inkscape="http://www.inkscape.org/namespaces/inkscape"
   xmlns:sodipodi="http://sodipodi.sourceforge.net/DTD/sodipodi-0.dtd"
   xmlns:xlink="http://www.w3.org/1999/xlink"
   xmlns="http://www.w3.org/2000/svg"
   xmlns:svg="http://www.w3.org/2000/svg"><defs
   id="defs99"><linearGradient
     inkscape:collect="always"
     id="linearGradient27214"><stop
       style="stop-color:#374b9d;stop-opacity:1;"
       offset="0"
       id="stop27210" /><stop
       style="stop-color:#99c24d;stop-opacity:1;"
       offset="0.49673095"
       id="stop27212" /></linearGradient><linearGradient
     inkscape:collect="always"
     id="linearGradient27143"><stop
       style="stop-color:#99c24d;stop-opacity:1;"
       offset="0"
       id="stop27139" /><stop
       style="stop-color:#374b9d;stop-opacity:1;"
       offset="1"
       id="stop27141" /></linearGradient><linearGradient
     inkscape:collect="always"
     id="linearGradient11129"><stop
       style="stop-color:#99c24d;stop-opacity:1;"
       offset="0"
       id="stop11125" /><stop
       style="stop-color:#374b9d;stop-opacity:1;"
       offset="0.99989998"
       id="stop11127" /></linearGradient><linearGradient
     inkscape:collect="always"
     xlink:href="#linearGradient11129"
     id="linearGradient11131"
     x1="391.3183"
     y1="222.87846"
     x2="435.26428"
     y2="261.30914"
     gradientUnits="userSpaceOnUse" /><linearGradient
     inkscape:collect="always"
     xlink:href="#linearGradient27143"
     id="linearGradient27147"
     x1="358.75577"
     y1="332.26694"
     x2="368.10123"
     y2="294.0224"
     gradientUnits="userSpaceOnUse" /><linearGradient
     inkscape:collect="always"
     xlink:href="#linearGradient27214"
     id="linearGradient27216"
     x1="405.0311"
     y1="250.18938"
     x2="396.50641"
     y2="202.94374"
     gradientUnits="userSpaceOnUse" /></defs><sodipodi:namedview
   id="namedview97"
   pagecolor="#ffffff"
   bordercolor="#000000"
   borderopacity="0.25"
   inkscape:showpageshadow="2"
   inkscape:pageopacity="0"
   inkscape:pagecheckerboard="false"
   inkscape:deskcolor="#d1d1d1"
   showgrid="false"
   inkscape:zoom="1"
   inkscape:cx="372"
   inkscape:cy="258.5"
   inkscape:window-width="1920"
   inkscape:window-height="1004"
   inkscape:window-x="0"
   inkscape:window-y="0"
   inkscape:window-maximized="1"
   inkscape:current-layer="Layer_1"
   showguides="true" />

<rect
   style="fill:#ffffff;fill-opacity:1;stroke:none;stroke-width:0.99464"
   id="rect27366"
   width="576"
   height="576"
   x="0"
   y="0" /><path
   fill="#2c3e82"
   opacity="1"
   stroke="none"
   d="m 300.27307,364.03073 c 2.52014,25.34058 -5.50738,46.96381 -20.77115,66.21051 -3.40497,4.29349 -7.30313,4.62796 -12.02325,1.80457 1.82571,-3.75663 5.16824,-6.35062 7.56701,-9.64225 13.25415,-18.18713 20.36939,-38.04596 16.57584,-60.86087 -2.99414,-18.00711 -18.89395,-33.0913 -37.40907,-36.31823 -18.65404,-3.25113 -35.74146,2.18133 -52.34142,9.25894 -20.86696,8.89691 -40.65915,19.88589 -58.55751,34.0108 -0.80757,0.6373 -1.61838,1.17682 -2.71394,0.93225 -2.94455,-5.22506 -2.35326,-8.23816 2.8878,-12.16684 14.49518,-10.86566 26.92278,-23.84253 38.40076,-37.73724 11.28796,-13.66473 18.7249,-29.38449 24.13517,-46.21381 5.15601,-16.0383 11.31411,-31.69066 20.81158,-45.78837 12.28883,-18.24112 28.12545,-32.3261 48.33454,-41.30468 2.56977,-1.14167 5.08048,-2.41621 7.67069,-4.2097 -7.5922,-1.57483 -15.03961,-3.321 -22.34992,-5.63884 -17.40559,-5.51872 -31.80832,-15.0547 -41.83184,-30.60675 -0.89873,-1.39442 -1.71589,-2.86682 -2.36525,-4.39065 -0.99598,-2.33721 -0.24527,-4.39267 1.85778,-5.59224 2.22206,-1.26746 3.78881,0.14601 4.94364,1.97931 3.82718,6.0756 7.81218,12.03801 13.52644,16.54535 16.23293,12.8043 35.00641,18.85046 55.3682,20.41224 5.63705,0.43235 11.32351,0.18083 16.98053,0.41019 2.62912,0.1066 4.48452,1.60974 4.60879,4.34552 0.12878,2.83588 -1.77118,4.052 -4.36883,4.51296 -43.4928,7.71774 -72.19677,33.13729 -88.558,73.6042 -5.30092,13.1109 -8.63327,26.91528 -14.89479,39.70065 -5.2488,10.7175 -11.54004,20.58856 -19.51709,29.42743 -1.98009,2.194 -9.98052,9.17476 -12.21772,11.82088 17.71964,-8.63684 39.93894,-18.9592 57.17173,-21.36748 16.85223,-2.18033 32.88019,-0.47372 47.21566,9.69781 12.72745,9.03064 19.34873,21.63422 21.86362,37.16434 z"
   id="path86"
   sodipodi:nodetypes="csccssssccsssscsssssssssssssccsc"
   style="fill:#374b9d;fill-opacity:1" />

<path
   id="path566"
   d="m 362.52015,320.72436 -7.83819,-0.0285 c -0.49139,3.39455 -0.20887,6.86052 1.07585,10.59523 0.21457,0.62381 0.27771,1.30158 0.39453,1.95703 6.2727,35.1968 -1.27521,66.73745 -24.82226,94.07617 -1.21351,1.40884 -3.18148,2.58618 -2.55078,4.97461 5.05663,1.60388 7.28678,1.26873 10.34765,-2.15821 2.43314,-2.72412 4.72419,-5.62018 6.74024,-8.66406 19.23381,-29.03949 24.35277,-60.65943 17.04492,-94.49609 -0.61083,-2.62989 -0.6539,-3.97514 -0.39196,-6.25613 z"
   style="fill:url(#linearGradient27147);fill-opacity:1;stroke:none"
   sodipodi:nodetypes="ccscscsscc" /><path
   id="path564"
   d="m 397.39023,232.50809 -8.37304,4.4043 c 0.003,0.0361 0.005,0.0711 0.008,0.10742 3.5e-4,0.005 -3.5e-4,0.009 0,0.0137 0,0 0.16311,0.10014 0.22461,0.15234 14.1636,14.14903 17.3496,33.05726 8.22656,44.12891 -3.43223,-7.32893 -9.37799,-10.65628 -15.94726,-13.21094 -7.48327,-2.91003 -14.54566,-5.85388 -17.55274,-14.17969 -0.61517,-1.70316 -2.18118,-2.51461 -4.08398,-2.04882 -2.0557,0.50322 -2.88764,2.00526 -3.18555,3.99414 -0.38525,2.57166 1.31827,4.3903 2.21094,6.49218 6.89727,16.24066 8.03252,31.84645 -0.12109,47.03516 -2.01184,3.74769 -3.44524,7.26113 -4.03907,10.81641 -0.0276,0.16501 -0.0523,0.33086 -0.0762,0.49609 l 7.80469,0.0371 c 0.1657,-0.65332 0.43226,-1.30759 0.83594,-1.96484 3.86267,-6.28934 6.6841,-13.01057 8.0039,-20.32032 0.26361,-1.46021 0.41464,-3.42419 2.03125,-3.81836 6.39111,-1.55829 10.13202,-3.29037 14.78906,-5.92773 0.9663,1.84051 0.57318,3.48078 0.28711,5.08008 -0.31485,1.76047 -0.36832,3.43228 1.59961,4.20508 1.67355,0.65713 3.38574,0.41082 4.5918,-0.99024 1.5721,-1.82628 3.22424,-3.60456 4.80664,-5.43164 1.58241,-1.82708 3.09505,-3.70284 4.38477,-5.7168 9.77962,-15.27139 8.48989,-32.5519 -3.25782,-47.88281 -1.33921,-1.74772 -2.63908,-3.38819 -3.16797,-5.4707 z"
   style="mix-blend-mode:normal;fill:url(#linearGradient27216);fill-opacity:1;stroke:none" /><path
   id="path574"
   d="M 215.37891 81.572266 C 214.91342 81.569165 214.38764 81.680378 213.78906 81.935547 C 211.32177 82.98734 210.58882 85.238502 211.44922 87.791016 C 212.13857 89.836108 212.90264 91.875433 213.84766 93.8125 C 221.12775 108.735 231.44898 121.19042 244.4043 131.54297 C 264.04194 147.23532 286.87054 156.16661 310.625 163.30078 C 326.23294 167.98835 342.24478 171.6801 356.70898 179.54297 C 372.99805 188.39784 386.25373 200.35266 389.21289 219.63477 C 390.52941 228.21322 388.61103 231.19992 389.01758 236.92188 L 397.39062 232.51758 C 397.19514 231.74786 397.10349 230.91862 397.15625 230 C 398.32514 209.64572 389.27814 194.08249 374.0293 181.51953 C 360.87009 170.67815 345.17743 165.08502 329.20312 160.24023 C 313.74533 155.55212 298.16684 151.22068 283.35547 144.69336 C 255.0969 132.23993 231.70766 114.41578 218.90625 85.183594 C 218.10908 83.363242 217.20503 81.584431 215.37891 81.572266 z "
   style="fill:url(#linearGradient11131);fill-opacity:1" />







<path
   style="fill:#f58220;fill-opacity:1;stroke:none;stroke-width:0.389556;stroke-opacity:1"
   d="m 303.86168,306.51011 c -7.36259,-0.87115 -14.96851,-4.94181 -19.60376,-10.49182 -5.00548,-5.99334 -7.41398,-12.49254 -7.41204,-20.00101 0.002,-8.3762 2.5735,-14.88715 8.30813,-21.03733 11.72241,-12.57184 31.08857,-13.20711 43.61664,-1.43076 4.60125,4.32516 7.50221,9.35789 9.00674,15.62533 1.05614,4.39956 0.85109,11.28555 -0.4585,15.39774 -4.66446,14.64672 -18.48577,23.70933 -33.45721,21.93785 z"
   id="path605" /><path
   style="fill:#374b9d;fill-opacity:1;stroke:#2c3e82;stroke-width:0.175929;stroke-opacity:1"
   d="m 332.65305,239.48051 c -3.32503,-0.39342 -6.75996,-2.23178 -8.8533,-4.73824 -2.26054,-2.70667 -3.34826,-5.6418 -3.34737,-9.03273 9e-4,-3.7828 1.16223,-6.72323 3.75205,-9.50074 5.29399,-5.67761 14.04,-5.9645 19.69784,-0.64614 2.07799,1.95329 3.38809,4.22614 4.06756,7.0566 0.47697,1.9869 0.38436,5.09671 -0.20705,6.95383 -2.10654,6.61465 -8.34843,10.70745 -15.10973,9.90742 z"
   id="path605-3" /><path
   style="fill:#374b9d;fill-opacity:1;stroke:#2c3e82;stroke-width:0.0628307;stroke-opacity:1"
   d="m 379.28899,242.55364 c -1.18746,-0.1405 -2.41418,-0.79706 -3.16178,-1.69222 -0.80731,-0.96666 -1.19577,-2.01492 -1.19545,-3.22596 3.2e-4,-1.35099 0.41507,-2.40114 1.33997,-3.3931 1.89065,-2.02771 5.01412,-2.13017 7.0347,-0.23077 0.74212,0.6976 1.21,1.50933 1.45265,2.5202 0.17035,0.70961 0.13728,1.82025 -0.0739,2.4835 -0.75231,2.36237 -2.98149,3.82408 -5.39616,3.53835 z"
   id="path605-3-6" /><path
   style="fill:#f58220;fill-opacity:1;stroke-width:0.388324"
   d=""
   id="path607" /><path
   style="fill:none;fill-opacity:1;stroke-width:0.388324"
   d="m 211.83059,305.57562 c -7.78829,-1.74246 -14.5,-6.15883 -18.78932,-12.36355 -4.00347,-5.79123 -5.48091,-10.56149 -5.48091,-17.69639 0,-9.6318 3.51601,-17.0673 11.07104,-23.41255 8.76847,-7.36438 21.56644,-9.02211 31.99152,-4.14388 6.83962,3.20048 12.59956,9.261 15.40665,16.21066 1.63104,4.03805 2.10929,6.61493 2.10929,11.36524 0,5.34839 -0.81988,9.06681 -2.92326,13.25794 -1.81127,3.60907 -2.52698,4.60996 -5.60157,7.83362 -4.03583,4.2315 -8.79449,7.10399 -14.20611,8.5753 -3.42178,0.9303 -10.24934,1.11818 -13.57733,0.37361 z"
   id="path609" /><path
   style="fill:none;fill-opacity:1;stroke-width:0;stroke:none;stroke-opacity:1;stroke-dasharray:none"
   d="m 212.02475,305.63136 c -10.99409,-2.36327 -19.73684,-10.13534 -23.17475,-20.60175 -1.47405,-4.48764 -1.73093,-12.25903 -0.55847,-16.8955 2.69056,-10.6397 11.54428,-19.41185 22.33912,-22.1333 4.19162,-1.05674 10.2806,-1.05203 14.43791,0.0111 11.26151,2.88002 19.55039,11.31731 22.52499,22.92832 1.00322,3.91596 0.61728,12.04165 -0.76232,16.05017 -1.48727,4.32134 -3.81284,8.11697 -7.00998,11.4412 -4.27703,4.44705 -8.93364,7.28054 -14.41333,8.77036 -3.24683,0.88274 -10.23152,1.10682 -13.38317,0.42935 z"
   id="path611" /><path
   id="path88"
   d="M 372.61133 274.16992 C 377.61973 274.22168 381.4628 276.49006 385.56641 279.43164 C 382.1336 283.26239 378.93542 284.96243 373.83789 285.40625 C 372.78033 281.61594 372.26782 277.92642 372.12305 274.17188 C 372.28708 274.16888 372.44977 274.16825 372.61133 274.16992 z "
   style="fill:#ffffff;fill-opacity:1" /></svg>
